# xmcd
#
# Track frame offsets:
# 150
# 12057
# 27006
# 35709
# 50428
# 63600
# 77393
# 91992
# 102622
# 115825
#
# Disc length: 1667 seconds
#
#
# Revision: 0
# Processed by: cddbd v1.5.1PL0 Copyright (c) Steve Scherf et al.
# Submitted via: FreeRIP 2.90 
#
DISCID=7606810a
DTITLE=Ray Price - Ray Price Gospel
DYEAR=2003
DGENRE=Gospel
TTITLE0=Peace In The Valley
TTITLE1=The Old Rugged Cross
TTITLE2=Take My Hand
TTITLE3=How Great Thou Art
TTITLE4=What A Friend We Have In Jesus
TTITLE5=Love Lifted Me
TTITLE6=Farther Along
TTITLE7=Rock Of Ages
TTITLE8=In The Garden
TTITLE9=Amazing Grace
EXTD=
EXTT0=
EXTT1=
EXTT2=
EXTT3=
EXTT4=
EXTT5=
EXTT6=
EXTT7=
EXTT8=
EXTT9=
PLAYORDER=
